<?xml version="1.0" encoding="UTF-8"?>
<!DOCTYPE svg PUBLIC "-//W3C//DTD SVG 1.1//EN" "http://www.w3.org/Graphics/SVG/1.1/DTD/svg11.dtd">
<!-- Creator: CorelDRAW -->
<svg xmlns="http://www.w3.org/2000/svg" xml:space="preserve" width="32px" height="32px" style="shape-rendering:geometricPrecision; text-rendering:geometricPrecision; image-rendering:optimizeQuality; fill-rule:evenodd; clip-rule:evenodd"
viewBox="0 0 32 32"
 xmlns:xlink="http://www.w3.org/1999/xlink">
 <defs>
  <style type="text/css">
   <![CDATA[
    .fil26 {fill:none}
    .fil14 {fill:#3D372F}
    .fil2 {fill:#413930}
    .fil8 {fill:#544330}
    .fil11 {fill:#554630}
    .fil13 {fill:#6A4F31}
    .fil10 {fill:#6B5333}
    .fil19 {fill:#7D6237}
    .fil0 {fill:#8C6A39}
    .fil18 {fill:#9A743B}
    .fil1 {fill:#A6833D}
    .fil12 {fill:#AB8B3E}
    .fil7 {fill:#B4923E}
    .fil17 {fill:#C2A23D}
    .fil4 {fill:#D2AC3B}
    .fil16 {fill:#D5B33A}
    .fil20 {fill:#D6C679}
    .fil9 {fill:#DCC037}
    .fil15 {fill:#EBCB52}
    .fil5 {fill:#F3D74A}
    .fil6 {fill:#F4DA63}
    .fil3 {fill:#F8ED7A}
    .fil22 {fill:#2C3630}
    .fil21 {fill:#2F623E}
    .fil24 {fill:#4B8D4B}
    .fil25 {fill:#5F9D4E}
    .fil23 {fill:#6FB34F}
   ]]>
  </style>
 </defs>
 <g id="Layer_x0020_1">
  <metadata id="CorelCorpID_0Corel-Layer"/>
  <g id="_315279928">
   <g>
    <g>
     <path id="_315547856" class="fil0" d="M11.7478 3.05448c-0.168906,0.175993 -1.84261,0.818544 -2.16743,0.929573 -0.323638,0.268123 -0.94611,0.616566 -1.34652,0.890595 -0.39687,0.270486 -1.59575,1.17762 -1.87096,1.47409l-1.0595 1.17407c-0.13229,0.19371 -0.220877,0.472464 -0.463015,0.61066 -0.246863,0.395689 -0.452384,0.778385 -0.740588,1.2225 -0.168906,0.261036 -0.479551,0.98745 -0.675624,1.17762 -0.313008,0.97682 -0.588218,1.36897 -0.797283,2.46981l-0.393326 3.10763c-0.226783,0.0909494 -0.433486,-0.00708696 -0.721689,-0.095674 -0.0129928,-0.33545 0.0626015,-1.40558 -0.066145,-1.58512 -0.0437029,0.85516 -0.231507,4.18249 0.220877,4.70692 0.114573,-0.514986 0.144102,-0.45829 0.454747,-0.760667l0.172449 0.216152c-0.0413406,-0.422855 0.0106304,-0.747675 0.461834,-0.494906 0.291747,0.161819 -0.141739,0.0425218 0.0555145,0.0460653 0.0673261,0 -0.0448841,0.0413406 0.145283,-0.120478l0.116935 -0.0933117c0.0165362,0.797283 -0.0059058,0.585856 0.129928,0.412225 0.0803189,-0.428761 -0.103942,-1.21541 -0.108667,-1.72922 -0.0248044,-2.55485 0.61066,-5.17821 2.05758,-7.24524 0.653182,-0.930754 0.739406,-1.19179 1.63827,-2.10601 5.48413,-5.5798 15.4342,-5.12742 20.0065,2.20759 1.09375,1.7552 1.6489,2.99897 1.8934,5.53137 0.408682,4.238 -0.883508,5.71209 -0.928392,6.41724l0.124022 0.0838624c0.370884,-0.683892 -0.116935,-0.191348 0.953197,-1.68906l0.0897682 0.561051c0.00708696,0.00118116 0.0188986,-0.0177174 0.0200797,-0.0106304 0.0496087,0.232689 -0.0059058,-0.146464 0.191348,0.029529 0.124022,-0.134652 0.0708696,0 0.199616,-0.363797l0.544515 0.288203c0.00708696,0.0059058 -0.0413406,-0.134652 0.0342537,0.0460653 0.262218,-0.310645 0.531522,-1.53197 0.476008,-2.01978l-0.022442 -0.344899c-0.362616,0.147645 -0.0377971,0.0271667 -0.229145,0.0141739 -0.313008,-0.0212609 -0.219696,0.0330725 -0.75358,0.0566957 0.0118116,-0.466558 0.0578769,-0.891776 0.0980363,-1.37605 0.0472464,-0.575225 -0.0165362,-0.982726 -0.0153551,-1.52606l-0.0838624 -1.02997c-0.0118116,-1.02288 -0.318913,-1.97372 -0.634283,-2.87849 -0.150007,-0.431124 -0.379153,-0.805551 -0.574044,-1.18589 -0.166544,-0.324819 -0.516167,-0.879965 -0.622472,-1.16817 -0.405138,-0.687435 -1.56622,-2.14617 -2.18987,-2.71313l-0.771298 -0.70279c-0.00354348,-0.0200797 -0.0165362,-0.0259855 -0.0212609,-0.0401595 -0.398051,-0.14292 -0.646095,-0.422855 -0.982726,-0.664993 -0.311826,-0.225602 -0.701609,-0.415768 -0.968552,-0.639008 -0.514986,-0.166544 -1.1599,-0.676805 -2.34224,-0.990994 -2.44382,-0.649638 -4.61952,-1.08667 -7.23815,-0.392145 -0.42758,0.113391 -0.865791,0.28466 -1.29573,0.292928z"/>
     <path id="_315544904" class="fil1" d="M2.29381 18.5926c0.0259855,0.574044 0.184261,0.82445 0.279935,1.31463 0.272848,0.84453 0.490182,1.38196 0.845711,2.10247 0.165362,0.336631 0.330725,0.654363 0.506718,0.924849 0.212609,0.324819 0.432305,0.57995 0.550421,0.927211 0.126384,0.059058 0.709877,0.806733 0.881146,0.98745 1.7741,1.86033 1.27093,1.3666 3.1974,2.69423 1.48708,1.02525 3.6675,1.83198 5.75225,2.05876l-0.0425218 -0.943747c-0.281116,-0.145283 -1.62764,-0.434667 -2.05758,-0.555145 -1.16581,-0.324819 -2.72966,-0.974457 -3.66987,-1.65953 -1.38904,-1.01225 -3.00133,-2.67651 -3.87303,-4.17304 -0.900044,-1.54496 -0.968552,-2.10601 -1.33707,-3.59663 -0.0200797,-0.0779566 -0.0106304,-0.0531522 -0.0377971,-0.135833l-0.0555145 -0.131109c-0.00708696,-0.0165362 -0.0188986,-0.0448841 -0.0307102,-0.0649638 -0.135833,0.173631 -0.113391,0.385058 -0.129928,-0.412225l-0.116935 0.0933117c-0.190167,0.161819 -0.0779566,0.120478 -0.145283,0.120478 -0.197254,-0.00354348 0.236232,0.115754 -0.0555145,-0.0460653 -0.451203,-0.252768 -0.503174,0.0720508 -0.461834,0.494906z"/>
     <path id="_315552944" class="fil1" d="M27.762 21.418c-0.268123,0.185442 -0.634283,1.02288 -0.849254,1.33471 -1.36897,1.9997 -3.50687,4.03721 -5.84674,4.90418l-3.273 1.1162 0.00118116 0.822088c0.990994,0.0165362 2.74738,-0.664993 3.56947,-1.00517 1.4859,-0.615385 3.07456,-1.55913 4.20021,-2.63635l1.11147 -1.20006c0.341355,-0.390964 0.668537,-0.870515 0.979182,-1.33353 0.163,-0.243319 0.747675,-1.30754 0.852798,-1.37723l0.486638 -1.04178 0.146464 -0.608298c-0.197254,-0.175993 -0.141739,0.20316 -0.191348,-0.029529 -0.00118116,-0.00708696 -0.0129928,0.0118116 -0.0200797,0.0106304l-0.0897682 -0.561051c-1.07013,1.49771 -0.582312,1.00517 -0.953197,1.68906l-0.124022 -0.0838624z"/>
     <path id="_315279520" class="fil2" d="M17.7942 29.5952l-0.00472464 0.963827c3.06984,-0.629559 4.53684,-1.17525 6.74797,-2.68242 0.786653,-0.537428 1.84734,-1.467 2.46154,-2.23594 0.438211,-0.54924 1.90403,-2.20759 1.89576,-2.75683l-0.109848 -0.0460653c-0.0141739,-0.00708696 -0.0389783,-0.0177174 -0.0543334,-0.0259855 -0.557508,-0.329544 -0.151189,-0.682711 -0.223239,-0.768935 -0.105123,0.0696885 -0.689798,1.13391 -0.852798,1.37723 -0.310645,0.463015 -0.637827,0.942566 -0.979182,1.33353l-1.11147 1.20006c-1.12565,1.07722 -2.71431,2.02097 -4.20021,2.63635 -0.822088,0.340174 -2.57847,1.0217 -3.56947,1.00517z"/>
     <path id="_316098400" class="fil3" d="M11.0911 2.29381l0.655544 0.116935 -0.139377 0.379153c0.825631,-0.159457 0.0566957,-0.201978 1.09494,-0.177174 -0.188986,0.115754 -0.865791,0.303558 -1.17171,0.4075l0.217334 0.0342537c0.429942,-0.00826812 0.868153,-0.179536 1.29573,-0.292928 2.61863,-0.694522 4.79433,-0.257493 7.23815,0.392145 1.18234,0.314189 1.82726,0.82445 2.34224,0.990994 0.146464,-0.116935 0.261036,0.0425218 -0.0177174,-0.270486 -0.196073,-0.219696 -0.0921305,0.128746 -0.245681,-0.220877 0.292928,-0.385058 0.351986,-0.229145 0.852798,-0.199616 -0.206703,-0.369703 -2.07412,-1.07486 -2.56076,-1.23786 -2.08002,-0.700428 -4.2699,-1.08076 -6.533,-0.686254 -1.32881,0.231507 -0.890595,0.0472464 -2.35878,0.435848 -0.223239,0.059058 -0.344899,0.0425218 -0.532703,0.187805 -0.14292,0.109848 -0.029529,0.0059058 -0.137015,0.140558z"/>
     <path id="_316096888" class="fil2" d="M3.89547 24.3508c0.0507899,0.292928 0.622472,0.89532 0.861066,1.1847 0.783109,0.954378 2.33988,2.3824 3.33914,2.87376 1.98081,1.07131 4.06792,1.7493 6.23889,2.11546l-0.0271667 -0.922486c-2.08475,-0.226783 -4.26517,-1.03352 -5.75225,-2.05876 -1.92647,-1.32762 -1.4233,-0.833899 -3.1974,-2.69423 -0.171268,-0.180718 -0.754762,-0.928392 -0.881146,-0.98745 -0.20316,0.218515 0.0354348,0.0236232 -0.105123,0.172449 -0.0803189,0.0826812 -0.0153551,0.0389783 -0.187805,0.122841 -0.327181,0.159457 -0.226783,-0.0791378 -0.288203,0.19371z"/>
     <path id="_315280696" class="fil4" d="M27.5577 8.90477c0.106304,0.288203 0.455928,0.843349 0.622472,1.16817 0.194891,0.380334 0.424037,0.754762 0.574044,1.18589 0.31537,0.904769 0.622472,1.8556 0.634283,2.87849 0.105123,-0.160638 0.066145,-0.282297 0.100399,-0.47837 0.0472464,-0.270486 -0.0909494,0.125203 0.0484276,-0.188986l0.463015 -0.481913c0.175993,-0.238594 0.059058,-0.29529 0.199616,-0.459471 -0.279935,-1.26148 -1.37487,-3.76436 -2.07648,-4.54865 -0.374428,0.0696885 0.095674,-0.0271667 -0.239776,0.118116 -0.15237,0.0649638 -0.120478,-0.248044 -0.198435,0.138196 -0.0614203,0.309464 0.22442,0.519711 -0.127565,0.668537z"/>
     <path id="_315280456" class="fil5" d="M7.68345 4.05256c-0.571682,0.172449 -2.95881,2.43319 -3.22102,3.04739 0.0200797,-0.00826812 0.0496087,-0.0484276 0.0578769,-0.029529l0.261036 0c-0.0200797,0.0838624 -0.0212609,-0.0496087 -0.0307102,0.127565 -0.0236232,0.49845 -0.0188986,-0.066145 0.0803189,0.340174 0.095674,0.390964 -0.107486,0.470102 0.00944928,0.595305 0.242138,-0.138196 0.330725,-0.41695 0.463015,-0.61066l1.0595 -1.17407c0.27521,-0.296471 1.47409,-1.2036 1.87096,-1.47409 0.400413,-0.274029 1.02288,-0.622472 1.34652,-0.890595 -0.0767754,-0.0614203 -0.164181,-0.13229 -0.261036,-0.134652 -0.337812,-0.0106304 -0.394508,0.337812 -0.394508,0.337812 -0.428761,0.0177174 -0.604754,-0.0330725 -0.907131,0.0578769l0.0909494 -0.181899c0.0815001,-0.19371 0.0602392,-0.0602392 0.022442,-0.128746l-0.44766 0.118116z"/>
     <path id="_312262512" class="fil6" d="M7.68345 4.05256l0.44766 -0.118116c0.0377971,0.0685073 0.059058,-0.0649638 -0.022442,0.128746l-0.0909494 0.181899c0.302377,-0.0909494 0.47837,-0.0401595 0.907131,-0.0578769 0,0 0.0566957,-0.348442 0.394508,-0.337812 0.0968552,0.00236232 0.184261,0.073232 0.261036,0.134652 0.324819,-0.111029 1.99852,-0.75358 2.16743,-0.929573l-0.217334 -0.0342537c0.305921,-0.103942 0.982726,-0.291747 1.17171,-0.4075 -1.03824,-0.0248044 -0.269305,0.0177174 -1.09494,0.177174l0.139377 -0.379153 -0.655544 -0.116935c-0.518529,-0.036616 -3.0911,1.28983 -3.40765,1.75875z"/>
     <path id="_312265944" class="fil5" d="M24.5752 5.44869c0.00472464,0.0141739 0.0177174,0.0200797 0.0212609,0.0401595l0.771298 0.70279c0.623653,0.566957 1.78473,2.02569 2.18987,2.71313 0.351986,-0.148826 0.066145,-0.359073 0.127565,-0.668537 0.0779566,-0.386239 0.0460653,-0.073232 0.198435,-0.138196 0.33545,-0.145283 -0.134652,-0.0484276 0.239776,-0.118116l-0.507899 -0.803189c-0.0200797,-0.0118116 -0.0496087,-0.0543334 -0.0578769,-0.0377971l-0.191348 -0.165362c-0.161819,-0.177174 -0.323638,-0.530341 -0.570501,-0.64137 -0.290565,-0.0555145 -0.0708696,0.128746 -0.552783,-0.381515 -0.245681,-0.258674 -0.261036,-0.163 -0.499631,-0.37679 -0.655544,-0.589399 -0.139377,-0.288203 -1.11029,-0.302377l-0.0578769 0.177174z"/>
     <path id="_312265728" class="fil7" d="M29.3885 14.1373l0.0838624 1.02997 0.140558 1.65008c0.207884,-0.145283 -0.204341,-0.128746 0.711059,-0.314189l0.00826812 -0.380334c0.0862247,0.10158 0.0909494,0.0685073 0.0933117,0.250406 0.00118116,-0.120478 -0.00944928,-0.37679 0.00354348,-0.483095 0.00944928,-0.0708696 0.029529,-0.174812 0.0543334,-0.242138 0.0129928,-0.0342537 0.0236232,-0.0484276 0.0377971,-0.0791378l0.095674 -0.154732c-0.0578769,-1.01698 -0.165362,-1.98907 -0.41695,-2.88558 -0.140558,0.164181 -0.0236232,0.220877 -0.199616,0.459471l-0.463015 0.481913c-0.139377,0.314189 -0.00118116,-0.0815001 -0.0484276,0.188986 -0.0342537,0.196073 0.00472464,0.317732 -0.100399,0.47837z"/>
     <path id="_412343408" class="fil8" d="M1.97254 20.3608c-0.0059058,0.562232 0.52916,1.66307 0.777204,2.16034 0.23387,0.468921 0.776022,1.63591 1.14573,1.82962 0.0614203,-0.272848 -0.0389783,-0.0342537 0.288203,-0.19371 0.172449,-0.0838624 0.107486,-0.0401595 0.187805,-0.122841 0.140558,-0.148826 -0.0980363,0.0460653 0.105123,-0.172449 -0.118116,-0.347261 -0.337812,-0.602392 -0.550421,-0.927211 -0.175993,-0.270486 -0.341355,-0.588218 -0.506718,-0.924849 -0.355529,-0.720508 -0.572863,-1.25794 -0.845711,-2.10247 -0.181899,0.231507 0.0507899,0.522073 0.00354348,0.779566 -0.392145,-0.00708696 -0.431124,-0.151189 -0.537428,-0.525616l-0.0673261 0.199616z"/>
     <path id="_412343696" class="fil6" d="M22.6239 4.14469c0.266942,0.223239 0.656725,0.413406 0.968552,0.639008 0.336631,0.242138 0.584674,0.522073 0.982726,0.664993l0.0578769 -0.177174c0.970914,0.0141739 0.454747,-0.287022 1.11029,0.302377 0.238594,0.21379 0.25395,0.118116 0.499631,0.37679 0.481913,0.510261 0.262218,0.326 0.552783,0.381515 -0.232689,-0.530341 -1.08431,-1.1221 -1.63236,-1.61465 -0.301196,-0.270486 -1.53905,-1.22368 -1.9501,-1.26384 -0.500812,-0.029529 -0.55987,-0.185442 -0.852798,0.199616 0.153551,0.349624 0.0496087,0.00118116 0.245681,0.220877 0.278754,0.313008 0.164181,0.153551 0.0177174,0.270486z"/>
     <path id="_412343888" class="fil9" d="M4.46242 7.09996c-0.243319,0.20316 -0.747675,0.941385 -0.950834,1.25557 -0.170087,0.265761 -0.637827,1.25439 -0.777204,1.37841l0.36616 0.282297c0.0106304,0.00826812 0.0318913,0.0212609 0.0413406,0.029529l0.282297 0.487819c0.196073,-0.190167 0.506718,-0.916581 0.675624,-1.17762 0.288203,-0.444116 0.493725,-0.826812 0.740588,-1.2225 -0.116935,-0.125203 0.0862247,-0.204341 -0.00944928,-0.595305 -0.0992175,-0.406319 -0.103942,0.158276 -0.0803189,-0.340174 0.00944928,-0.177174 0.0106304,-0.0437029 0.0307102,-0.127565l-0.261036 0c-0.00826812,-0.0188986 -0.0377971,0.0212609 -0.0578769,0.029529z"/>
     <path id="_412344032" class="fil1" d="M1.5237 13.2066c0.0909494,0.374428 -0.059058,0.832718 -0.0779566,1.22368 0.128746,0.179536 0.0531522,1.24967 0.066145,1.58512 0.288203,0.088587 0.494906,0.186623 0.721689,0.095674l0.393326 -3.10763c-0.126384,-0.0673261 -0.22442,-0.059058 -0.274029,-0.0850436 -0.238594,-0.124022 -0.114573,-0.170087 -0.336631,-0.297652 -0.0118116,-0.0059058 -0.256312,-0.0850436 -0.265761,-0.088587 -0.022442,0.116935 -0.0389783,0.251587 -0.073232,0.360254l-0.115754 0.252768c-0.0059058,-0.0129928 -0.0236232,0.0425218 -0.0377971,0.0614203z"/>
     <path id="_412344056" class="fil4" d="M1.75048 12.5321c0.00944928,0.00354348 0.25395,0.0826812 0.265761,0.088587 0.222058,0.127565 0.0980363,0.173631 0.336631,0.297652 0.0496087,0.0259855 0.147645,0.0177174 0.274029,0.0850436 0.209065,-1.10084 0.484276,-1.49299 0.797283,-2.46981l-0.282297 -0.487819c-0.00944928,-0.00826812 -0.0307102,-0.0212609 -0.0413406,-0.029529l-0.36616 -0.282297c-0.309464,0.944928 -0.779566,1.6052 -0.983907,2.79817z"/>
     <polygon id="_412344152" class="fil2" points="16.613,28.453 15.5441,28.453 15.524,30.6169 16.6874,30.5897 "/>
     <path id="_412344896" class="fil1" d="M30.3948 18.3434c0.316551,-0.42758 0.222058,-2.29263 0.222058,-2.92928l-0.095674 0.154732c-0.0141739,0.0307102 -0.0248044,0.0448841 -0.0377971,0.0791378 -0.0248044,0.0673261 -0.0448841,0.171268 -0.0543334,0.242138 -0.0129928,0.106304 -0.00236232,0.362616 -0.00354348,0.483095 -0.00236232,-0.181899 -0.00708696,-0.148826 -0.0933117,-0.250406l-0.00826812 0.380334c-0.915399,0.185442 -0.503174,0.168906 -0.711059,0.314189l-0.140558 -1.65008c-0.00118116,0.543334 0.0626015,0.950834 0.0153551,1.52606 -0.0401595,0.484276 -0.0862247,0.909494 -0.0980363,1.37605 0.533885,-0.0236232 0.440573,-0.0779566 0.75358,-0.0566957 0.191348,0.0129928 -0.133471,0.133471 0.229145,-0.0141739l0.022442 0.344899z"/>
     <path id="_412344752" class="fil10" d="M1.66662 19.1372c-0.0177174,0.386239 0.0767754,0.969733 0.305921,1.22368l0.0673261 -0.199616c0.106304,0.374428 0.145283,0.518529 0.537428,0.525616 0.0472464,-0.257493 -0.185442,-0.548058 -0.00354348,-0.779566 -0.095674,-0.490182 -0.25395,-0.740588 -0.279935,-1.31463l-0.172449 -0.216152c-0.310645,0.302377 -0.340174,0.245681 -0.454747,0.760667z"/>
     <path id="_412344584" class="fil10" d="M29.1404 20.3927l-0.146464 0.608298 0.126384 -0.118116c0.0259855,0.698066 0.135833,0.999262 0.159457,1.24376 0.257493,-0.226783 0.663812,-1.3666 0.639008,-1.76347 -0.0755943,-0.180718 -0.0271667,-0.0401595 -0.0342537,-0.0460653l-0.544515 -0.288203c-0.128746,0.363797 -0.0755943,0.229145 -0.199616,0.363797z"/>
     <path id="_412344536" class="fil8" d="M28.9939 21.001l-0.486638 1.04178c0.0720508,0.0862247 -0.334268,0.439392 0.223239,0.768935 0.0153551,0.00826812 0.0401595,0.0188986 0.0543334,0.0259855l0.109848 0.0460653 0.258674 -0.357892c0.103942,-0.199616 0.108667,-0.181899 0.126384,-0.399232 -0.0236232,-0.2445 -0.133471,-0.545696 -0.159457,-1.24376l-0.126384 0.118116z"/>
    </g>
    <g>
     <path id="_315280168" class="fil11" d="M16.5173 25.5698l-0.154732 -1.63591c0.00944928,0.364979 0.00708696,0.256312 -0.0944928,0.377971 -0.114573,-0.370884 -0.0673261,-0.348442 -0.269305,-0.531522l-0.0838624 -0.0720508c-0.239776,-0.184261 0.126384,0.0921305 -0.140558,-0.0909494 -0.314189,-0.214971 -0.186623,-0.200797 -0.314189,-0.367341l-0.0496087 7.37989 1.18825 -0.029529c-0.0307102,-1.66189 -0.135833,-3.36158 -0.0815001,-5.03056z"/>
     <path id="_316090648" class="fil12" d="M15.563 16.9367l-0.059058 0.317732 -0.243319 0.0437029 0.296471 0.159457 -0.0236232 0.631921c0.298834,0.255131 0.235051,0.186623 0.63074,0.337812 0.0188986,0.00708696 0.0696885,0.0212609 0.0815001,0.0283479 0.120478,0.0755943 0.0413406,-0.120478 0.0555145,0.111029 0.0212609,0.357892 -0.0177174,0.935479 -0.0177174,1.32644l-0.477189 0.00118116 -0.137015 -0.259855c-0.0106304,-0.0165362 -0.036616,-0.0283479 -0.0448841,-0.0685073 -0.00826812,-0.0425218 -0.029529,-0.0496087 -0.0484276,-0.0720508l-0.0118116 0.644914c-0.327181,-0.175993 -0.368522,-0.719327 -0.623653,-0.88587 -0.167725,0.0720508 -0.0850436,0.0696885 -0.317732,0.036616 -0.255131,-0.0354348 -0.506718,-0.235051 -0.709877,-0.344899 -0.350805,-0.186623 -0.646095,-0.300015 -1.18352,-0.255131 0.185442,0.255131 0.211428,0.442935 0.347261,0.670899 0.0815001,0.135833 0.392145,0.455928 0.47837,0.52916 0.334268,0.029529 0.256312,0.10158 0.576406,0.0673261 0.94611,-0.175993 0.298834,-0.190167 1.0784,0.373247 0.0909494,0.066145 0.257493,-0.106304 0.302377,0.849254l-0.0236232 0.36616 0.102761 0.564595 0.796102 0.0614203 0.161819 -0.960283 0.022442 -0.137015 0.0555145 -0.803189c-0.188986,0.0850436 -0.0874059,0.0803189 -0.167725,0.022442 -0.0460653,-0.546877 -0.0791378,-2.41784 0.0307102,-2.87494l0.029529 -0.727595c-0.289384,0.246863 -0.160638,0.429942 -0.551602,0.496087 -0.0803189,0.0129928 -0.160638,0.00236232 -0.240957,0.00236232l-0.164181 -0.252768z"/>
     <path id="_316090624" class="fil11" d="M11.9297 18.7958c0.0566957,0.683892 0.934298,1.73867 1.28746,2.10837 0.297652,0.310645 0.556327,0.533885 0.995718,0.757124 0.223239,0.114573 1.0406,0.333087 1.16817,0.465377l0.107486 -0.581131 0.0236232 -0.36616c-0.304739,-0.217334 -0.591761,-0.383877 -1.05123,-0.577587 -0.367341,-0.154732 -0.546877,-0.349624 -0.820907,-0.617747 -0.00944928,-0.00944928 -0.0354348,-0.0177174 -0.0425218,-0.0460653 -0.00708696,-0.029529 -0.0307102,-0.0307102 -0.0425218,-0.0484276 -0.0862247,-0.073232 -0.39687,-0.393326 -0.47837,-0.52916 -0.135833,-0.227964 -0.161819,-0.415768 -0.347261,-0.670899l0.0165362 0.276392c-0.631921,-0.0484276 -0.650819,0.0283479 -0.760667,-0.344899l-0.0555145 0.174812z"/>
     <path id="_316091296" class="fil11" d="M18.96 9.89694c-0.201978,0.406319 -0.15237,0.394508 -0.483095,0.686254 -0.174812,0.153551 -0.370884,0.297652 -0.592943,0.442935 -0.29529,0.191348 -1.20242,0.657906 -1.47291,0.668537 -0.0271667,0.390964 -0.135833,0.514986 -0.100399,1.03706l0.18308 -0.00236232c0.89532,-0.00236232 1.79773,-0.696885 2.36232,-1.28038 0.113391,-0.116935 0.218515,-0.190167 0.326,-0.31537 0.120478,-0.139377 0.108667,-0.188986 0.269305,-0.327181l0.0744131 -0.278754 -0.572863 -0.694522 0.00708696 0.0637827z"/>
     <path id="_316091152" class="fil11" d="M18.9175 14.8224c-0.161819,0.389783 -0.155913,0.426399 -0.483095,0.601211 -0.217334,0.197254 -0.570501,0.433486 -0.939023,0.566957 -0.186623,0.0673261 -0.44766,0.111029 -0.608298,0.172449 -0.471283,0.179536 -0.141739,0.116935 -0.42758,0.303558l0.0602392 0.22442 -0.029529 0.727595c0.761849,-0.0862247 1.35361,-0.403957 1.89694,-0.76303 0.318913,-0.211428 0.437029,-0.39687 0.729957,-0.623653 0.301196,-0.23387 0.357892,-0.487819 0.596486,-0.840986 -0.248044,0.0318913 -0.13229,-0.0354348 -0.272848,0.137015 -0.163,-0.303558 -0.191348,-0.415768 -0.500812,-0.568138l-0.022442 0.0626015z"/>
     <path id="_316091344" class="fil13" d="M12.5805 10.8773c0.114573,0.585856 1.63709,1.70914 2.5265,1.78946l0.400413 0.0566957 0.0673261 -0.812638 0.0118116 -0.238594c-0.401595,-0.00118116 -0.972095,-0.155913 -1.19652,-0.468921 -0.4075,-0.100399 -0.884689,-0.794921 -1.18707,-1.10202 -0.314189,0.300015 0.174812,-0.326 -0.113391,0.251587 -0.190167,0.381515 -0.429942,0.448841 -0.50908,0.524435z"/>
     <path id="_316091728" class="fil14" d="M18.7438 19.6238c-0.170087,0.369703 -0.426399,0.50908 -0.82445,0.767754l-0.0992175 0.0826812c-0.360254,0.281116 0.338993,-0.237413 -0.0980363,0.0755943 -0.497269,0.35671 -0.766573,0.10158 -1.15045,0.524435l-0.022442 0.137015c-0.00354348,0.109848 -0.0236232,0.26458 -0.0212609,0.364979 0.00118116,0.0484276 0.0106304,0.177174 0.0212609,0.223239 0.0649638,0.277573 -0.0909494,-0.0318913 0.0826812,0.192529 0.628377,-0.00708696 1.44456,-0.445298 1.79891,-0.731138 0.277573,-0.223239 0.392145,-0.402776 0.628377,-0.649638 0.31537,-0.328363 0.421674,-0.287022 0.440573,-0.806733 -0.0330725,-0.0519711 -0.19371,-0.300015 -0.198435,-0.304739 -0.232689,-0.218515 -0.129928,-0.122841 -0.400413,-0.175993l-0.157094 0.300015z"/>
     <path id="_316091608" class="fil11" d="M12.5357 15.6126c0.343718,0.546877 0.55987,0.724051 1.12446,1.08785 0.383877,0.246863 1.03942,0.637827 1.60047,0.597667l0.243319 -0.0437029 0.059058 -0.317732 -0.12166 -0.655544c-0.320094,-0.105123 -0.930754,-0.281116 -1.17289,-0.490182 -0.220877,-0.0685073 -0.669718,-0.46774 -0.82445,-0.61066l-0.525616 -0.0472464 -0.34608 0.445298c-0.00354348,-0.0129928 -0.0248044,0.022442 -0.036616,0.0342537z"/>
     <path id="_316092016" class="fil15" d="M11.7325 13.0672l0.583493 0.322457 0.242138 -0.329544 0.166544 0.780747 0.181899 0.428761 0.127565 0.296471c0.168906,-0.28466 -0.115754,-0.394508 0.292928,-0.402776 0.201978,-0.00354348 0.393326,0.186623 0.517348,0.26458 0.329544,0.206703 0.869334,0.468921 1.18352,0.205522 -0.282297,-0.633102 -0.861066,-1.05478 -1.46582,-1.43393 -0.998081,-0.628377 -0.298834,-0.355529 -1.76938,-1.12801l-0.0602392 0.995718z"/>
     <path id="_316092064" class="fil15" d="M11.847 8.05315c0.164181,0.159457 0.15237,0.285841 0.292928,0.493725 0.330725,-0.0212609 0.304739,-0.0389783 0.461834,-0.248044l0.231507 0.803189 0.0342537 0.160638c0.55987,0.0543334 0.425218,0.0059058 0.999262,0.276392 0.180718,0.0850436 0.257493,0.168906 0.511442,0.217334 0.568138,0.109848 0.0944928,-0.029529 0.564595,-0.0874059 -0.29529,-0.60003 -0.927211,-0.973276 -1.51425,-1.37605 -0.613022,-0.419312 -0.497269,-0.519711 -0.659088,-0.781928 -0.146464,-0.236232 -0.520892,-0.421674 -0.823269,-0.461834l-0.0992175 1.00399z"/>
     <path id="_316092472" class="fil16" d="M11.8092 18.4556l0.0566957 -0.777204 0.450022 0.622472 0.199616 -0.320094c0.0791378,0.285841 0.184261,0.377971 0.21379,0.708696 0.537428,-0.0448841 0.832718,0.0685073 1.18352,0.255131 0.20316,0.109848 0.454747,0.309464 0.709877,0.344899 0.232689,0.0330725 0.150007,0.0354348 0.317732,-0.036616 -0.320094,-0.881146 -1.48708,-1.36542 -2.25956,-1.97018 -0.26458,-0.206703 -0.570501,-0.45829 -0.859885,-0.42758 -0.115754,0.422855 -0.118116,1.16226 -0.0118116,1.60047z"/>
     <path id="_316091968" class="fil12" d="M16.411 11.6947c0.270486,-0.0106304 1.17762,-0.477189 1.47291,-0.668537 0.222058,-0.145283 0.418131,-0.289384 0.592943,-0.442935 0.330725,-0.291747 0.281116,-0.279935 0.483095,-0.686254 -0.223239,-0.192529 -0.118116,-0.186623 -0.226783,-0.393326l-0.94611 0.393326c-0.594124,0.500812 -0.424037,0.0177174 -0.838624,0.175993l0.170087 -0.652001c-0.36616,0.60003 -0.777204,1.37369 -0.707515,2.27373z"/>
     <path id="_316092376" class="fil15" d="M16.9839 19.3037c0.825631,-0.216152 0.597667,0.0413406 1.31936,-0.414587 0.278754,-0.177174 0.755943,-0.517348 1.12328,-0.558689 0.155913,-0.301196 0.287022,-0.291747 0.490182,-0.535066 0.238594,-0.285841 0.168906,-0.420493 0.236232,-0.819725 -0.10158,-0.288203 -0.245681,-0.172449 -0.901225,0.235051 -0.657906,0.409863 -2.08475,1.39259 -2.26783,2.09302z"/>
     <path id="_316092280" class="fil12" d="M15.5748 11.9108l-0.0673261 0.812638 -0.400413 -0.0566957 0.329544 0.185442 0.198435 2.04695 0.144102 0.144102c0.18308,0.153551 0.240957,0.151189 0.504356,0.249225 0.0129928,-0.361435 0.0271667,-0.605935 0.146464,-0.884689l0.0637827 -1.67843 -0.18308 0.00236232c-0.0354348,-0.522073 0.073232,-0.646095 0.100399,-1.03706 -0.281116,0.184261 -0.261036,0.322457 -0.604754,0.411044l-0.172449 -0.151189c-0.00826812,-0.0318913 -0.0389783,-0.0283479 -0.059058,-0.0437029z"/>
     <path id="_316093408" class="fil17" d="M12.8676 9.26266l0.33545 0.838624c0.302377,0.307102 0.779566,1.00162 1.18707,1.10202l0.088587 -0.740588 0.212609 0.0874059c0.342537,0.108667 0.0377971,-0.0696885 0.571682,0.287022 0.139377,-0.212609 0.0614203,-0.0578769 0.173631,-0.151189 -0.0862247,-0.369703 -0.305921,-0.764211 -0.493725,-1.01698 -0.470102,0.0578769 0.00354348,0.197254 -0.564595,0.0874059 -0.25395,-0.0484276 -0.330725,-0.13229 -0.511442,-0.217334 -0.574044,-0.270486 -0.439392,-0.222058 -0.999262,-0.276392z"/>
     <path id="_316092808" class="fil15" d="M17.3985 9.14218c0.198435,0.0685073 0.242138,0.127565 0.421674,0.2445l0.207884 0.127565 1.01816 -0.715783c0.0980363,0.307102 0.0118116,0.066145 0.194891,0.186623l0.0803189 -0.459471c0.164181,-0.448841 0.114573,-0.39687 0.45829,-0.627196 0.151189,-0.100399 0.207884,-0.116935 0.269305,-0.288203 0.126384,-0.349624 -0.029529,-0.481913 -0.029529,-0.481913 -0.326,0.103942 -0.622472,0.18308 -0.815001,0.428761 -0.591761,0.758305 -1.41385,0.792559 -1.80599,1.58512z"/>
     <path id="_316093312" class="fil15" d="M14.7775 5.60461l0.128746 0.022442c1.2414,0.107486 0.500812,0.179536 1.93238,-0.0602392 0.0330725,0.029529 0.180718,0.108667 0.240957,0.262218l0.0791378 0.0496087c-0.12166,-0.453566 -0.330725,-0.727595 -0.552783,-1.03706 -0.197254,-0.272848 -0.453566,-0.721689 -0.799646,-0.807914 -0.392145,0.206703 -0.71224,1.14691 -1.02879,1.57094z"/>
     <path id="_316093240" class="fil12" d="M13.0341 14.5661c0.0531522,0.26458 -0.0602392,0.0826812 0.163,0.35671 0.0472464,0.0578769 0.0696885,0.066145 0.122841,0.120478 0.095674,0.0980363 0.0448841,0.022442 0.124022,0.137015 0.154732,0.14292 0.603573,0.542153 0.82445,0.61066 0.214971,-0.153551 0.882327,-0.615385 0.999262,-0.12166l0.137015 -0.171268 -0.37679 -0.864609c-0.314189,0.263399 -0.853979,0.00118116 -1.18352,-0.205522 -0.124022,-0.0779566 -0.31537,-0.268123 -0.517348,-0.26458 -0.408682,0.00826812 -0.124022,0.118116 -0.292928,0.402776z"/>
     <path id="_316092904" class="fil18" d="M14.6322 7.15547c-0.0177174,0.302377 -0.0165362,0.171268 0.0838624,0.271667l-0.00236232 -0.240957c0.140558,0.159457 0.00826812,0.0614203 0.227964,0.139377 0.00944928,0.00236232 0.0318913,0.00826812 0.0413406,0.0118116 0.362616,0.11221 0.350805,0.160638 0.745312,0.459471 0.598848,-0.12166 0.931936,-0.161819 1.02407,0.42758 0.494906,-0.451203 0.550421,-1.1032 0.503174,-1.95246 -0.340174,0.405138 -0.116935,0.219696 -0.128746,0.258674 -0.0118116,0.0389783 -0.022442,0.177174 -0.0271667,0.225602l-1.30873 0.829175 -0.550421 -1.13628 -0.545696 -0.146464 -0.0626015 0.852798z"/>
     <path id="_316093024" class="fil18" d="M15.4886 21.5455l-0.107486 0.581131 0.0791378 1.12328c0.127565,0.166544 0,0.15237 0.314189,0.367341 0.266942,0.18308 -0.0992175,-0.0933117 0.140558,0.0909494l0.0838624 0.0720508c0.201978,0.18308 0.154732,0.160638 0.269305,0.531522 0.10158,-0.12166 0.103942,-0.0129928 0.0944928,-0.377971l0.154732 1.63591c0,-0.827994 -0.168906,-2.9966 0.114573,-3.57774 -0.173631,-0.22442 -0.0177174,0.0850436 -0.0826812,-0.192529 -0.0106304,-0.0460653 -0.0200797,-0.174812 -0.0212609,-0.223239 -0.00236232,-0.100399 0.0177174,-0.255131 0.0212609,-0.364979l-0.161819 0.960283 -0.796102 -0.0614203 -0.102761 -0.564595z"/>
     <path id="_316093672" class="fil15" d="M17.5556 13.8928c0.375609,0.137015 0.373247,0.19371 0.472464,0.270486 0.239776,-0.0377971 0.473645,-0.10158 0.695704,-0.210247 0.237413,-0.116935 0.36616,-0.21379 0.675624,-0.23387l0.0578769 -0.184261c0.0791378,-0.274029 0,-0.122841 0.199616,-0.364979 0.066145,-0.52916 -0.194891,-0.555145 0.105123,-0.558689l-0.0165362 -0.314189c-0.493725,0.119297 -0.758305,0.389783 -1.18234,0.696885 -0.380334,0.274029 -0.751218,0.448841 -1.00753,0.898863z"/>
     <path id="_316094104" class="fil19" d="M14.7161 7.42714c-0.0165362,0.598848 0.76303,1.2603 1.17053,1.67016 0.292928,-0.0874059 0.274029,-0.196073 0.457109,-0.418131 0.185442,-0.22442 0.274029,-0.21379 0.408682,-0.454747 -0.0921305,-0.589399 -0.425218,-0.54924 -1.02407,-0.42758 -0.394508,-0.298834 -0.382696,-0.347261 -0.745312,-0.459471 -0.00944928,-0.00354348 -0.0318913,-0.00944928 -0.0413406,-0.0118116 -0.219696,-0.0779566 -0.0874059,0.0200797 -0.227964,-0.139377l0.00236232 0.240957z"/>
     <path id="_316093456" class="fil20" d="M15.635 14.8992l-0.0106304 0.660269c-0.231507,-0.0318913 -0.0248044,0.0401595 -0.219696,-0.0614203 0.0578769,0.468921 0.227964,0.957921 0.158276,1.43865l0.164181 0.252768c0.0803189,0 0.160638,0.0106304 0.240957,-0.00236232 0.390964,-0.066145 0.262218,-0.249225 0.551602,-0.496087l-0.0602392 -0.22442 0.0767754 -0.680348c-0.226783,-0.289384 -0.100399,-0.965008 -0.106304,-1.37841 -0.119297,0.278754 -0.133471,0.523254 -0.146464,0.884689 -0.263399,-0.0980363 -0.321276,-0.095674 -0.504356,-0.249225l-0.144102 -0.144102z"/>
     <path id="_316093984" class="fil17" d="M14.6322 7.15547l0.0626015 -0.852798 0.545696 0.146464 0.550421 1.13628 1.30873 -0.829175c0.00472464,-0.0484276 0.0153551,-0.186623 0.0271667,-0.225602 0.0118116,-0.0389783 -0.211428,0.146464 0.128746,-0.258674l-0.0968552 -0.393326 -0.0791378 -0.0496087 -0.0992175 0.461834c-0.405138,0.18308 -0.88587,0.349624 -1.33117,0.185442l-0.294109 -0.205522c-0.248044,-0.206703 0.0826812,-0.187805 -0.500812,-0.217334l0.0519711 -0.426399 -0.128746 -0.022442c-0.133471,0.386239 -0.37679,1.14454 -0.145283,1.55086z"/>
     <path id="_316093720" class="fil18" d="M19.3214 8.52562l-0.0803189 0.459471c-0.11221,0.342537 -0.237413,0.538609 -0.288203,0.848073l0.572863 0.694522c0.424037,-0.372066 0.628377,-1.44338 0.664993,-2.13672 -0.0779566,0.0803189 -0.133471,0.0696885 -0.179536,0.214971 -0.305921,-0.0791378 -0.29529,-0.0838624 -0.689798,-0.0803189z"/>
     <path id="_316093552" class="fil18" d="M16.5362 15.7862l-0.0767754 0.680348c0.285841,-0.186623 -0.0437029,-0.124022 0.42758,-0.303558 0.160638,-0.0614203 0.421674,-0.105123 0.608298,-0.172449 0.368522,-0.133471 0.721689,-0.369703 0.939023,-0.566957 -0.297652,-0.151189 -0.00944928,0.0129928 -0.19371,-0.160638 -0.190167,-0.179536 0.105123,0 -0.148826,-0.141739 -0.290565,-0.163 -0.525616,0.0118116 -0.695704,0.029529 -0.480732,0.0496087 -0.538609,-0.201978 -0.555145,-0.217334 -0.160638,0.194891 -0.307102,0.577587 -0.304739,0.852798z"/>
     <path id="_316094752" class="fil16" d="M14.9062 5.62705l-0.0519711 0.426399c0.583493,0.029529 0.252768,0.0106304 0.500812,0.217334l0.294109 0.205522c0.445298,0.164181 0.92603,-0.00236232 1.33117,-0.185442l0.0992175 -0.461834c-0.0602392,-0.153551 -0.207884,-0.232689 -0.240957,-0.262218 -1.43157,0.239776 -0.690979,0.167725 -1.93238,0.0602392z"/>
     <path id="_316094344" class="fil19" d="M19.4265 18.3304l-0.525616 0.993356c0.270486,0.0531522 0.167725,-0.0425218 0.400413,0.175993 0.00472464,0.00472464 0.165362,0.252768 0.198435,0.304739 0.245681,-0.18308 0.550421,-0.794921 0.626015,-1.15872 0.113391,-0.550421 0.036616,-1.11502 0.0271667,-1.67016 -0.0673261,0.399232 0.00236232,0.533885 -0.236232,0.819725 -0.20316,0.243319 -0.334268,0.23387 -0.490182,0.535066z"/>
     <path id="_316094320" class="fil12" d="M16.9839 19.3037l-0.148826 0.349624c0.20316,0.103942 0.49845,-0.0106304 0.85516,-0.073232 0.531522,-0.0933117 0.613022,0.0850436 1.0536,0.0437029l0.157094 -0.300015 0.525616 -0.993356c-0.367341,0.0413406 -0.84453,0.381515 -1.12328,0.558689 -0.721689,0.455928 -0.493725,0.198435 -1.31936,0.414587z"/>
     <path id="_316094368" class="fil12" d="M17.0536 14.4491l-0.212609 0.484276c0.0165362,0.0153551 0.0744131,0.266942 0.555145,0.217334 0.170087,-0.0177174 0.405138,-0.192529 0.695704,-0.029529 0.25395,0.141739 -0.0413406,-0.0377971 0.148826,0.141739 0.184261,0.173631 -0.103942,0.00944928 0.19371,0.160638 0.327181,-0.174812 0.321276,-0.211428 0.483095,-0.601211l-0.217334 -0.246863c-0.0342537,-0.0744131 0.0566957,-0.353167 -0.27521,-0.310645 -0.444116,0.0566957 -0.576406,0.597667 -1.37133,0.184261z"/>
     <path id="_316094776" class="fil16" d="M17.3985 9.14218l-0.279935 0.278754 -0.170087 0.652001c0.414587,-0.158276 0.2445,0.324819 0.838624,-0.175993l0.94611 -0.393326c0.108667,0.206703 0.00354348,0.200797 0.226783,0.393326l-0.00708696 -0.0637827c0.0507899,-0.309464 0.175993,-0.505537 0.288203,-0.848073 -0.18308,-0.120478 -0.0968552,0.120478 -0.194891,-0.186623l-1.01816 0.715783 -0.207884 -0.127565c-0.179536,-0.116935 -0.223239,-0.175993 -0.421674,-0.2445z"/>
     <path id="_316094392" class="fil19" d="M19.3994 13.7192c-0.109848,0.18308 -0.35671,0.818544 -0.459471,1.0406 0.309464,0.15237 0.337812,0.26458 0.500812,0.568138 0.140558,-0.172449 0.0248044,-0.105123 0.272848,-0.137015 0.22442,-0.266942 0.472464,-0.805551 0.451203,-1.28392l-0.118116 -0.0921305c-0.265761,0.154732 -0.558689,-0.257493 -0.589399,-0.279935l-0.0578769 0.184261z"/>
     <path id="_316094512" class="fil18" d="M12.0348 9.70796l0.0259855 -0.0271667c0.322457,0.0755943 0.382696,0.0626015 0.783109,0.0720508 -0.036616,-0.308283 -0.0850436,-0.353167 -0.0106304,-0.650819l-0.231507 -0.803189c-0.157094,0.209065 -0.131109,0.226783 -0.461834,0.248044 -0.140558,-0.207884 -0.128746,-0.334268 -0.292928,-0.493725 -0.0153551,0.501993 -0.155913,1.30991 0.187805,1.65481z"/>
     <path id="_316095376" class="fil18" d="M15.576 19.4939c0.0188986,0.022442 0.0401595,0.029529 0.0484276,0.0720508 0.00826812,0.0401595 0.0342537,0.0519711 0.0448841,0.0685073l0.137015 0.259855 0.477189 -0.00118116c0,-0.390964 0.0389783,-0.968552 0.0177174,-1.32644 -0.0141739,-0.231507 0.0649638,-0.0354348 -0.0555145,-0.111029 -0.0118116,-0.00708696 -0.0626015,-0.0212609 -0.0815001,-0.0283479 -0.395689,-0.151189 -0.331906,-0.0826812 -0.63074,-0.337812l0.0425218 1.4044z"/>
     <path id="_316095232" class="fil18" d="M13.555 19.8896c0.0118116,0.0177174 0.0354348,0.0188986 0.0425218,0.0484276 0.00708696,0.0283479 0.0330725,0.036616 0.0425218,0.0460653 0.274029,0.268123 0.453566,0.463015 0.820907,0.617747 0.459471,0.19371 0.746493,0.360254 1.05123,0.577587 -0.0448841,-0.955559 -0.211428,-0.783109 -0.302377,-0.849254 -0.779566,-0.563414 -0.13229,-0.54924 -1.0784,-0.373247 -0.320094,0.0342537 -0.242138,-0.0377971 -0.576406,-0.0673261z"/>
     <path id="_316095160" class="fil18" d="M16.8351 19.6533l-0.184261 0.422855c0.360254,0.0318913 0.501993,-0.0448841 0.770117,0.113391 0.0129928,0.00826812 0.029529,0.0248044 0.0437029,0.0330725 0.0141739,0.00826812 0.0307102,0.0236232 0.0460653,0.0318913 0.216152,0.122841 0.190167,0.088587 0.408682,0.137015 0.398051,-0.258674 0.654363,-0.398051 0.82445,-0.767754 -0.440573,0.0413406 -0.522073,-0.137015 -1.0536,-0.0437029 -0.35671,0.0626015 -0.652001,0.177174 -0.85516,0.073232z"/>
     <path id="_316095304" class="fil16" d="M17.5556 13.8928c-0.236232,0.0708696 -0.385058,0.271667 -0.501993,0.556327 0.794921,0.413406 0.927211,-0.127565 1.37133,-0.184261 0.331906,-0.0425218 0.240957,0.236232 0.27521,0.310645l0.217334 0.246863 0.022442 -0.0626015c0.102761,-0.222058 0.349624,-0.857523 0.459471,-1.0406 -0.309464,0.0200797 -0.438211,0.116935 -0.675624,0.23387 -0.222058,0.108667 -0.455928,0.172449 -0.695704,0.210247 -0.0992175,-0.0767754 -0.0968552,-0.133471 -0.472464,-0.270486z"/>
     <path id="_316095568" class="fil12" d="M14.3901 11.2033c0.22442,0.313008 0.794921,0.46774 1.19652,0.468921l-0.150007 -0.986269c-0.11221,0.0933117 -0.0342537,-0.0614203 -0.173631,0.151189 -0.533885,-0.35671 -0.229145,-0.178355 -0.571682,-0.287022l-0.212609 -0.0874059 -0.088587 0.740588z"/>
     <path id="_316095592" class="fil19" d="M12.0348 9.70796l0.0472464 0.394508 0.49845 0.774841c0.0791378,-0.0755943 0.318913,-0.14292 0.50908,-0.524435 0.288203,-0.577587 -0.200797,0.0484276 0.113391,-0.251587l-0.33545 -0.838624 -0.0342537 -0.160638c-0.0744131,0.297652 -0.0259855,0.342537 0.0106304,0.650819 -0.400413,-0.00944928 -0.460653,0.00354348 -0.783109,-0.0720508l-0.0259855 0.0271667z"/>
     <path id="_316096120" class="fil19" d="M12.0207 14.6145c-0.00236232,0.300015 0.119297,0.485457 0.321276,0.767754l0.19371 0.230326c0.0118116,-0.0118116 0.0330725,-0.0472464 0.036616,-0.0342537l0.34608 -0.445298 0.525616 0.0472464c-0.0791378,-0.114573 -0.0283479,-0.0389783 -0.124022,-0.137015 -0.0531522,-0.0543334 -0.0755943,-0.0626015 -0.122841,-0.120478 -0.223239,-0.274029 -0.109848,-0.0921305 -0.163,-0.35671l-0.127565 -0.296471c-0.18308,0.173631 -0.127565,-0.25395 -0.159457,0.290565 -0.229145,-0.088587 -0.155913,-0.0307102 -0.367341,-0.0212609 -0.324819,0.0153551 -0.181899,-0.0755943 -0.359073,0.0755943z"/>
     <path id="_316096480" class="fil19" d="M16.6272 20.2711l-0.0555145 0.803189c0.383877,-0.422855 0.653182,-0.167725 1.15045,-0.524435 0.437029,-0.313008 -0.262218,0.205522 0.0980363,-0.0755943l0.0992175 -0.0826812c-0.218515,-0.0484276 -0.192529,-0.0141739 -0.408682,-0.137015 -0.0153551,-0.00826812 -0.0318913,-0.0236232 -0.0460653,-0.0318913 -0.0141739,-0.00826812 -0.0307102,-0.0248044 -0.0437029,-0.0330725 -0.268123,-0.158276 -0.409863,-0.0815001 -0.770117,-0.113391l-0.0236232 0.194891z"/>
     <path id="_316096456" class="fil18" d="M11.8092 18.4556c0.0106304,0.0708696 0.0059058,0.10158 0.0271667,0.157094 0.066145,0.172449 0.0437029,0.107486 0.0933117,0.18308l0.0555145 -0.174812c0.109848,0.373247 0.128746,0.296471 0.760667,0.344899l-0.0165362 -0.276392c-0.029529,-0.330725 -0.134652,-0.422855 -0.21379,-0.708696l-0.199616 0.320094 -0.450022 -0.622472 -0.0566957 0.777204z"/>
     <path id="_316096096" class="fil18" d="M14.2684 15.7909c0.242138,0.209065 0.852798,0.385058 1.17289,0.490182l0.12166 0.655544c0.0696885,-0.480732 -0.100399,-0.969733 -0.158276,-1.43865l-0.137015 0.171268c-0.116935,-0.493725 -0.784291,-0.0318913 -0.999262,0.12166z"/>
     <path id="_316096168" class="fil12" d="M11.7289 13.5337c0.374428,0.279935 -0.15237,0.11221 0.82445,0.533885l0.0720508 -0.108667c0.00944928,-0.0129928 0.036616,-0.0460653 0.0460653,-0.059058 0.0106304,-0.0129928 0.036616,-0.0389783 0.0531522,-0.059058l-0.166544 -0.780747 -0.242138 0.329544 -0.583493 -0.322457 -0.00354348 0.466558z"/>
     <path id="_316096216" class="fil18" d="M12.0207 14.6145c0.177174,-0.151189 0.0342537,-0.0602392 0.359073,-0.0755943 0.211428,-0.00944928 0.138196,-0.0673261 0.367341,0.0212609 0.0318913,-0.544515 -0.0236232,-0.116935 0.159457,-0.290565l-0.181899 -0.428761c-0.0165362,0.0200797 -0.0425218,0.0460653 -0.0531522,0.059058 -0.00944928,0.0129928 -0.036616,0.0460653 -0.0460653,0.059058l-0.0720508 0.108667c-0.97682,-0.421674 -0.450022,-0.25395 -0.82445,-0.533885l0.291747 1.08076z"/>
     <path id="_316097056" class="fil16" d="M19.3214 8.52562c0.394508,-0.00354348 0.383877,0.00118116 0.689798,0.0803189 0.0460653,-0.145283 0.10158,-0.134652 0.179536,-0.214971l-0.0342537 -1.24494 -0.137015 -0.0177174c0,0 0.155913,0.13229 0.029529,0.481913 -0.0614203,0.171268 -0.118116,0.187805 -0.269305,0.288203 -0.343718,0.230326 -0.294109,0.178355 -0.45829,0.627196z"/>
     <path id="_316096912" class="fil12" d="M19.6569 13.1699c-0.199616,0.242138 -0.120478,0.0909494 -0.199616,0.364979 0.0307102,0.022442 0.323638,0.434667 0.589399,0.279935l0.118116 0.0921305c0.160638,-0.283479 0.095674,-0.783109 0.0826812,-1.17644l-0.140558 0.385058 -0.450022 0.0543334z"/>
     <path id="_316096936" class="fil16" d="M19.7455 12.2971l0.0165362 0.314189c-0.300015,0.00354348 -0.0389783,0.029529 -0.105123,0.558689l0.450022 -0.0543334 0.140558 -0.385058 -0.0755943 -0.676805c-0.192529,0.0460653 -0.0838624,-0.00118116 -0.242138,0.0838624 -0.145283,0.0791378 -0.135833,0.0992175 -0.184261,0.159457z"/>
    </g>
    <g>
     <g>
      <path id="_315277792" class="fil21" d="M5.9436 16.9142l0.181899 0.395689 0.310645 0.595305 0.627196 0.904769 0.872878 0.637827c0.279935,0.100399 0.50908,0.0626015 0.755943,0.20316 0.168906,0.095674 0.342537,0.278754 0.591761,0.441754 0.328363,0.214971 0.220877,0.240957 0.703972,0.170087 0.657906,-0.0968552 1.00871,-0.154732 1.28038,0.147645l0.170087 0.232689 0.115754 -0.0685073c0.0118116,-0.00708696 0.0507899,-0.0236232 0.0696885,-0.0413406 0.127565,0.108667 0.487819,0.53979 0.583493,0.693341 0.173631,0.277573 0.379153,0.550421 0.548058,0.903588 -0.235051,0.106304 -0.127565,-0.0437029 0.0992175,0.766573 -0.129928,-0.558689 -0.522073,-0.381515 -0.923668,-0.455928 -0.313008,-0.0578769 -0.351986,-0.0968552 -0.703972,-0.11221 -0.738225,-0.0318913 -0.650819,0.11221 -0.728776,0.238594 -0.499631,-0.400413 -1.05123,-1.28392 -1.43865,-1.68315l-1.62173 -1.30164c-0.0177174,0.0200797 -0.271667,0.059058 0.0425218,0.646095 0.15237,0.283479 0.222058,0.307102 0.338993,0.624834 -0.531522,-0.100399 -0.647276,-0.466558 -1.5237,-0.472464 -0.229145,-0.597667 -0.464196,-0.124022 -0.916581,-0.437029l-0.166544 -0.150007c-0.173631,-0.178355 -0.26458,-0.525616 -0.334268,-0.791378l-0.0413406 0.127565c-0.540972,-0.505537 -0.383877,-3.12299 -0.420493,-3.96043l0.0944928 0.185442c0.0626015,0.166544 0.0141739,-0.0496087 0.0602392,0.214971l0.0460653 1.32408c0.978001,0.0165362 -0.230326,-0.196073 1.01934,-0.0448841 0.219696,0.0259855 0.088587,-0.0271667 0.307102,0.0649638z"/>
      <path id="_315279592" class="fil22" d="M7.81928 20.8534c0.133471,0.0425218 0.0897682,0.036616 0.206703,0.180718 0.124022,0.154732 0.144102,0.206703 0.23387,0.329544 0.171268,0.232689 0.265761,0.357892 0.445298,0.591761 1.20951,1.57567 1.30754,2.30208 2.11428,4.31478 -1.23077,-0.364979 -2.81471,-1.84852 -3.72184,-2.77336 -0.544515,-0.555145 -2.28909,-3.16551 -2.26074,-4.36675l0.0413406 -0.127565c0.0696885,0.265761 0.160638,0.613022 0.334268,0.791378l0.166544 0.150007c0.452384,0.313008 0.687435,-0.160638 0.916581,0.437029 0.876421,0.0059058 0.992175,0.372066 1.5237,0.472464z"/>
      <path id="_315550304" class="fil22" d="M10.4982 22.5673c0.0779566,-0.126384 -0.00944928,-0.270486 0.728776,-0.238594 0.351986,0.0153551 0.390964,0.0543334 0.703972,0.11221 0.401595,0.0744131 0.79374,-0.102761 0.923668,0.455928 -0.226783,-0.810276 -0.334268,-0.660269 -0.0992175,-0.766573 0.990994,1.47054 1.31936,3.28126 1.34534,5.40145l-1.97018 -0.627196c-0.0767754,-1.67252 -0.922486,-3.16787 -1.63236,-4.33722z"/>
      <path id="_408414152" class="fil23" d="M5.47586 12.6928c0.196073,0.389783 0.245681,0.868153 0.752399,1.68079 0.616566,0.988631 1.59929,1.86741 2.48752,2.61036 0.320094,0.268123 1.14809,0.90595 1.34652,1.23904l-0.185442 0.164181c-0.350805,-0.122841 -0.114573,-0.103942 -0.614203,-0.209065 -0.389783,-0.0815001 -0.799646,-0.211428 -1.11502,-0.460653 -0.235051,-0.185442 -0.19371,-0.13229 -0.650819,-0.239776 -0.036616,-0.106304 -0.0519711,0.066145 0.0826812,-0.219696 -0.830356,-0.059058 -0.473645,-0.297652 -0.942566,-0.236232 -0.250406,0.0330725 -0.138196,0.187805 -0.409863,-0.0177174 0.00708696,0.490182 0.00944928,0.191348 -0.10158,0.305921l-0.181899 -0.395689c-0.471283,-1.40676 -0.232689,-0.28466 -0.673261,-2.13436 -0.223239,-0.937841 -0.405138,-1.40912 -0.00826812,-2.24539l0.21379 0.158276z"/>
      <path id="_408414176" class="fil24" d="M10.6954 19.0439c0.199616,0.148826 0.29529,0.386239 0.486638,0.656725 0.223239,0.316551 0.34608,0.383877 0.441754,0.832718 -0.0188986,0.0177174 -0.0578769,0.0342537 -0.0696885,0.0413406l-0.115754 0.0685073 -0.170087 -0.232689c-0.271667,-0.302377 -0.622472,-0.2445 -1.28038,-0.147645 -0.483095,0.0708696 -0.375609,0.0448841 -0.703972,-0.170087 -0.249225,-0.163 -0.422855,-0.34608 -0.591761,-0.441754 -0.246863,-0.140558 -0.476008,-0.102761 -0.755943,-0.20316l-0.872878 -0.637827 -0.627196 -0.904769c0.171268,-0.0980363 0.355529,-0.124022 0.500812,-0.0649638 0.00944928,0.00472464 0.0318913,0.0153551 0.0413406,0.0200797l0.311826 0.173631c0.155913,0.0614203 0.180718,0.0425218 0.320094,0.0862247 0.359073,0.115754 0.140558,0.0602392 0.249225,0.13229l1.07367 0.454747c0.246863,0.0614203 0.124022,-0.00826812 0.350805,0.108667 0.491363,0.25395 0.433486,0.0637827 0.892957,0.159457 0.403957,0.0838624 0.0862247,0.245681 0.518529,0.0685073z"/>
      <path id="_408414704" class="fil24" d="M5.47586 12.6928l-0.21379 -0.158276c-0.39687,0.836262 -0.214971,1.30754 0.00826812,2.24539 0.440573,1.8497 0.201978,0.727595 0.673261,2.13436 -0.218515,-0.0921305 -0.0874059,-0.0389783 -0.307102,-0.0649638 -1.24967,-0.151189 -0.0413406,0.0614203 -1.01934,0.0448841l-0.0460653 -1.32408c-0.0460653,-0.26458 0.00236232,-0.0484276 -0.0602392,-0.214971l-0.0944928 -0.185442c0.0897682,-0.778385 0.29529,-2.73321 0.779566,-3.4419 0.163,0.238594 0.216152,0.623653 0.279935,0.965008z"/>
      <path id="_408414752" class="fil25" d="M10.0623 18.2229c0.0897682,0.0472464 0.0236232,-0.0153551 0.155913,0.127565 0.0578769,0.0637827 0.114573,0.148826 0.170087,0.223239 0.125203,0.165362 0.204341,0.259855 0.307102,0.470102 -0.432305,0.177174 -0.114573,0.0153551 -0.518529,-0.0685073 -0.459471,-0.095674 -0.401595,0.0944928 -0.892957,-0.159457 -0.226783,-0.116935 -0.103942,-0.0472464 -0.350805,-0.108667l-1.07367 -0.454747c-0.108667,-0.0720508 0.109848,-0.0165362 -0.249225,-0.13229 -0.139377,-0.0437029 -0.164181,-0.0248044 -0.320094,-0.0862247l-0.311826 -0.173631c-0.00944928,-0.00472464 -0.0318913,-0.0153551 -0.0413406,-0.0200797 -0.145283,-0.059058 -0.329544,-0.0330725 -0.500812,0.0649638l-0.310645 -0.595305c0.111029,-0.114573 0.108667,0.184261 0.10158,-0.305921 0.271667,0.205522 0.159457,0.0507899 0.409863,0.0177174 0.468921,-0.0614203 0.11221,0.177174 0.942566,0.236232 -0.134652,0.285841 -0.119297,0.113391 -0.0826812,0.219696 0.457109,0.107486 0.415768,0.0543334 0.650819,0.239776 0.31537,0.249225 0.725233,0.379153 1.11502,0.460653 0.499631,0.105123 0.263399,0.0862247 0.614203,0.209065l0.185442 -0.164181z"/>
     </g>
     <g>
      <path id="_316098112" class="fil21" d="M26.0564 16.9142l-0.181899 0.395689 -0.310645 0.595305 -0.627196 0.904769 -0.872878 0.637827c-0.279935,0.100399 -0.50908,0.0626015 -0.755943,0.20316 -0.168906,0.095674 -0.341355,0.278754 -0.59058,0.441754 -0.329544,0.214971 -0.222058,0.240957 -0.705153,0.170087 -0.657906,-0.0968552 -1.00871,-0.154732 -1.28038,0.147645l-0.170087 0.232689 -0.115754 -0.0685073c-0.0106304,-0.00708696 -0.0507899,-0.0236232 -0.0696885,-0.0413406 -0.127565,0.108667 -0.487819,0.53979 -0.583493,0.693341 -0.173631,0.277573 -0.379153,0.550421 -0.548058,0.903588 0.236232,0.106304 0.127565,-0.0437029 -0.0980363,0.766573 0.128746,-0.558689 0.520892,-0.381515 0.922486,-0.455928 0.313008,-0.0578769 0.351986,-0.0968552 0.703972,-0.11221 0.738225,-0.0318913 0.650819,0.11221 0.728776,0.238594 0.499631,-0.400413 1.05123,-1.28392 1.43865,-1.68315l1.62173 -1.30164c0.0177174,0.0200797 0.271667,0.059058 -0.0425218,0.646095 -0.15237,0.283479 -0.222058,0.307102 -0.338993,0.624834 0.531522,-0.100399 0.647276,-0.466558 1.5237,-0.472464 0.229145,-0.597667 0.464196,-0.124022 0.916581,-0.437029l0.166544 -0.150007c0.173631,-0.178355 0.265761,-0.525616 0.334268,-0.791378l0.0413406 0.127565c0.540972,-0.505537 0.383877,-3.12299 0.420493,-3.96043l-0.0944928 0.185442c-0.0626015,0.166544 -0.0141739,-0.0496087 -0.0602392,0.214971l-0.0460653 1.32408c-0.97682,0.0165362 0.230326,-0.196073 -1.01934,-0.0448841 -0.219696,0.0259855 -0.088587,-0.0271667 -0.307102,0.0649638z"/>
      <path id="_316098760" class="fil22" d="M24.1807 20.8534c-0.133471,0.0425218 -0.0897682,0.036616 -0.205522,0.180718 -0.125203,0.154732 -0.145283,0.206703 -0.235051,0.329544 -0.170087,0.232689 -0.26458,0.357892 -0.444116,0.591761 -1.21069,1.57567 -1.30873,2.30208 -2.11546,4.31478 1.23077,-0.364979 2.81471,-1.84852 3.72184,-2.77336 0.544515,-0.555145 2.28909,-3.16551 2.26074,-4.36675l-0.0413406 -0.127565c-0.0685073,0.265761 -0.160638,0.613022 -0.334268,0.791378l-0.166544 0.150007c-0.452384,0.313008 -0.687435,-0.160638 -0.916581,0.437029 -0.876421,0.0059058 -0.992175,0.372066 -1.5237,0.472464z"/>
      <path id="_316098568" class="fil22" d="M21.5018 22.5673c-0.0779566,-0.126384 0.00944928,-0.270486 -0.728776,-0.238594 -0.351986,0.0153551 -0.390964,0.0543334 -0.703972,0.11221 -0.401595,0.0744131 -0.79374,-0.102761 -0.922486,0.455928 0.225602,-0.810276 0.334268,-0.660269 0.0980363,-0.766573 -0.990994,1.47054 -1.31936,3.28126 -1.34534,5.40145l1.97136 -0.627196c0.0755943,-1.67252 0.921305,-3.16787 1.63118,-4.33722z"/>
      <path id="_316098280" class="fil23" d="M26.5241 12.6928c-0.196073,0.389783 -0.245681,0.868153 -0.752399,1.68079 -0.616566,0.988631 -1.59811,1.86741 -2.48752,2.61036 -0.320094,0.268123 -1.14809,0.90595 -1.34652,1.23904l0.185442 0.164181c0.351986,-0.122841 0.114573,-0.103942 0.615385,-0.209065 0.388602,-0.0815001 0.798464,-0.211428 1.11383,-0.460653 0.235051,-0.185442 0.19371,-0.13229 0.650819,-0.239776 0.036616,-0.106304 0.0519711,0.066145 -0.0826812,-0.219696 0.830356,-0.059058 0.473645,-0.297652 0.942566,-0.236232 0.250406,0.0330725 0.138196,0.187805 0.411044,-0.0177174 -0.00826812,0.490182 -0.0106304,0.191348 0.100399,0.305921l0.181899 -0.395689c0.471283,-1.40676 0.232689,-0.28466 0.673261,-2.13436 0.223239,-0.937841 0.405138,-1.40912 0.00826812,-2.24539l-0.21379 0.158276z"/>
      <path id="_316098040" class="fil24" d="M21.3046 19.0439c-0.199616,0.148826 -0.29529,0.386239 -0.485457,0.656725 -0.22442,0.316551 -0.347261,0.383877 -0.442935,0.832718 0.0188986,0.0177174 0.059058,0.0342537 0.0696885,0.0413406l0.115754 0.0685073 0.170087 -0.232689c0.271667,-0.302377 0.622472,-0.2445 1.28038,-0.147645 0.483095,0.0708696 0.375609,0.0448841 0.705153,-0.170087 0.249225,-0.163 0.421674,-0.34608 0.59058,-0.441754 0.246863,-0.140558 0.476008,-0.102761 0.755943,-0.20316l0.872878 -0.637827 0.627196 -0.904769c-0.171268,-0.0980363 -0.355529,-0.124022 -0.500812,-0.0649638 -0.00944928,0.00472464 -0.0307102,0.0153551 -0.0413406,0.0200797l-0.311826 0.173631c-0.155913,0.0614203 -0.180718,0.0425218 -0.320094,0.0862247 -0.359073,0.115754 -0.140558,0.0602392 -0.248044,0.13229l-1.07486 0.454747c-0.246863,0.0614203 -0.124022,-0.00826812 -0.350805,0.108667 -0.491363,0.25395 -0.433486,0.0637827 -0.892957,0.159457 -0.403957,0.0838624 -0.0862247,0.245681 -0.518529,0.0685073z"/>
      <path id="_316097824" class="fil24" d="M26.5241 12.6928l0.21379 -0.158276c0.39687,0.836262 0.214971,1.30754 -0.00826812,2.24539 -0.440573,1.8497 -0.201978,0.727595 -0.673261,2.13436 0.218515,-0.0921305 0.0874059,-0.0389783 0.307102,-0.0649638 1.24967,-0.151189 0.0425218,0.0614203 1.01934,0.0448841l0.0460653 -1.32408c0.0460653,-0.26458 -0.00236232,-0.0484276 0.0602392,-0.214971l0.0944928 -0.185442c-0.0897682,-0.778385 -0.294109,-2.73321 -0.779566,-3.4419 -0.163,0.238594 -0.216152,0.623653 -0.279935,0.965008z"/>
      <path id="_316097704" class="fil25" d="M21.9377 18.2229c-0.088587,0.0472464 -0.0236232,-0.0153551 -0.155913,0.127565 -0.0578769,0.0637827 -0.114573,0.148826 -0.170087,0.223239 -0.125203,0.165362 -0.204341,0.259855 -0.307102,0.470102 0.432305,0.177174 0.114573,0.0153551 0.518529,-0.0685073 0.459471,-0.095674 0.401595,0.0944928 0.892957,-0.159457 0.226783,-0.116935 0.103942,-0.0472464 0.350805,-0.108667l1.07486 -0.454747c0.107486,-0.0720508 -0.111029,-0.0165362 0.248044,-0.13229 0.139377,-0.0437029 0.164181,-0.0248044 0.320094,-0.0862247l0.311826 -0.173631c0.0106304,-0.00472464 0.0318913,-0.0153551 0.0413406,-0.0200797 0.145283,-0.059058 0.329544,-0.0330725 0.500812,0.0649638l0.310645 -0.595305c-0.111029,-0.114573 -0.108667,0.184261 -0.100399,-0.305921 -0.272848,0.205522 -0.160638,0.0507899 -0.411044,0.0177174 -0.468921,-0.0614203 -0.11221,0.177174 -0.942566,0.236232 0.134652,0.285841 0.119297,0.113391 0.0826812,0.219696 -0.457109,0.107486 -0.415768,0.0543334 -0.650819,0.239776 -0.31537,0.249225 -0.725233,0.379153 -1.11383,0.460653 -0.500812,0.105123 -0.263399,0.0862247 -0.615385,0.209065l-0.185442 -0.164181z"/>
     </g>
    </g>
   </g>
   <circle id="_315547520" class="fil26" cx="16" cy="16" r="16.0011"/>
  </g>
 </g>
</svg>
