<?xml version="1.0" encoding="UTF-8"?>
<!DOCTYPE svg PUBLIC "-//W3C//DTD SVG 1.1//EN" "http://www.w3.org/Graphics/SVG/1.1/DTD/svg11.dtd">
<!-- Creator: CorelDRAW -->
<svg xmlns="http://www.w3.org/2000/svg" xml:space="preserve" width="22.3992mm" height="8.223mm" version="1.1" shape-rendering="geometricPrecision" text-rendering="geometricPrecision" image-rendering="optimizeQuality" fill-rule="evenodd" clip-rule="evenodd"
viewBox="0 0 225.28 82.7"
 xmlns:xlink="http://www.w3.org/1999/xlink"
 xmlns:xodm="http://www.corel.com/coreldraw/odm/2003">
 <defs>
    <mask id="id0">
      <radialGradient id="id1" gradientUnits="userSpaceOnUse" cx="32.74" cy="10.21" r="0" fx="32.74" fy="10.21">
       <stop offset="0" stop-opacity="1" stop-color="white"/>
       <stop offset="1" stop-opacity="0" stop-color="white"/>
      </radialGradient>
     <rect fill="url(#id1)" x="31.73" y="9.2" width="12.86" height="12.78"/>
    </mask>
    <linearGradient id="id2" gradientUnits="userSpaceOnUse" x1="38.58" y1="35.46" x2="37.79" y2="55.5">
     <stop offset="0" stop-opacity="1" stop-color="#FFC400"/>
     <stop offset="1" stop-opacity="1" stop-color="#FF9700"/>
    </linearGradient>
    <linearGradient id="id3" gradientUnits="userSpaceOnUse" x1="38.43" y1="13.16" x2="37.84" y2="24.83">
     <stop offset="0" stop-opacity="1" stop-color="#FFC400"/>
     <stop offset="1" stop-opacity="1" stop-color="#FF9700"/>
    </linearGradient>
    <linearGradient id="id4" gradientUnits="userSpaceOnUse" x1="70.97" y1="7.45" x2="70.2" y2="18.49">
     <stop offset="0" stop-opacity="1" stop-color="#FFC400"/>
     <stop offset="1" stop-opacity="1" stop-color="#FF9700"/>
    </linearGradient>
 </defs>
 <g id="Layer_x0020_1">
  <metadata id="CorelCorpID_0Corel-Layer"/>
  <g id="_2258831602768">
   <path fill="#1F5AE4" d="M40.55 0.09c21.64,1.33 38.77,19.3 38.77,41.27 0,22.84 -18.51,41.35 -41.35,41.35 -16.35,0 -30.49,-9.49 -37.19,-23.27 -0.63,-1.29 -1.05,-1.78 -0.57,-3.22 0.45,-1.36 1.54,-2.06 3.23,-2.05 1.89,0.01 1.61,0.17 2.29,1.69 5.53,12.29 17.89,20.85 32.24,20.85 19.52,0 35.34,-15.82 35.34,-35.34 0,-19.51 -15.82,-35.34 -35.34,-35.34 -1.62,0 -1.74,0.36 -2.32,-1.45 -0.37,-1.17 -0.26,-2.24 0.53,-3.19 1.38,-1.66 2.42,-1.41 4.37,-1.29z"/>
   <polygon fill="gold" mask="url(#id0)" points="32.74,10.21 43.59,10.21 43.59,20.97 32.74,20.97 "/>
   <line fill="none" stroke="#194473" stroke-width="2.01" stroke-miterlimit="22.9256" x1="38.1" y1="17.79" x2="38.1" y2= "66.73" />
   <line fill="none" stroke="#194473" stroke-width="2.01" stroke-miterlimit="22.9256" x1="65.57" y1="41.62" x2="12.8" y2= "41.62" />
   <polygon fill="none" stroke="#2F64AD" stroke-width="3.02" stroke-miterlimit="22.9256" stroke-dasharray="3.017258 3.017258" points="38.1,15.07 51.87,28.36 65.64,41.65 51.87,54.94 38.1,68.23 24.33,54.94 10.56,41.65 24.33,28.36 "/>
   <path fill="url(#id2)" d="M21.68 51.01c-3.09,2.63 0.62,5.78 2.64,3.92l13.93 -14.09 13.61 14.09c2.5,1.57 4.94,-0.94 3.63,-3.5l-0.81 -0.78 -15.23 -14.62c-0.76,-0.81 -1.66,-0.71 -2.64,0l-15.13 14.97z"/>
   <circle fill="gold" cx="38.14" cy="15.53" r="3.79"/>
   <path fill="url(#id3)" d="M31.24 20.35c-3.09,2.63 0.62,5.78 2.64,3.92l4.45 -5.16 4.09 5.15c2.25,1.57 4.75,-0.61 3.43,-3.18l-0.71 -0.85 -5.89 -6.5c-0.76,-0.81 -1.66,-0.71 -2.64,0l-5.37 6.62z"/>
   <circle fill="#00F2FE" cx="11.32" cy="41.61" r="3.12"/>
   <circle fill="#00F2FE" cx="65.02" cy="41.65" r="3.12"/>
   <circle fill="none" stroke="black" stroke-width="2.01" stroke-miterlimit="22.9256" cx="38.1" cy="68.23" r="3.12"/>
   <circle fill="url(#id4)" cx="70.59" cy="12.97" r="5.53"/>
   <polygon fill="black" points="70.87,9.95 72.42,12.47 75.21,13.22 73.38,15.52 73.55,18.5 70.87,17.41 68.2,18.5 68.37,15.52 66.54,13.22 69.33,12.47 "/>
  </g>
  <g id="_2258831603968">
   <path fill="white" fill-rule="nonzero" d="M103.81 34.18c0,1.96 0.57,3.6 1.72,4.92 1.15,1.32 2.56,1.98 4.23,1.98 1.69,0 3.1,-0.66 4.24,-1.97 1.14,-1.32 1.71,-2.96 1.71,-4.93 0,-1.98 -0.57,-3.63 -1.71,-4.95 -1.14,-1.32 -2.56,-1.98 -4.24,-1.98 -1.68,0 -3.09,0.66 -4.23,1.98 -1.15,1.32 -1.72,2.98 -1.72,4.95zm-5.54 0c0,-1.67 0.29,-3.23 0.86,-4.68 0.57,-1.46 1.42,-2.76 2.54,-3.91 1.06,-1.1 2.29,-1.94 3.69,-2.53 1.39,-0.59 2.86,-0.88 4.4,-0.88 1.53,0 3,0.3 4.41,0.89 1.41,0.59 2.65,1.44 3.74,2.55 1.1,1.11 1.93,2.39 2.49,3.85 0.57,1.45 0.85,3.03 0.85,4.71 0,1.41 -0.2,2.74 -0.59,3.98 -0.4,1.24 -0.98,2.38 -1.76,3.41 -1.1,1.46 -2.45,2.59 -4.05,3.4 -1.6,0.81 -3.3,1.21 -5.09,1.21 -1.52,0 -2.98,-0.3 -4.38,-0.89 -1.39,-0.59 -2.63,-1.44 -3.71,-2.55 -1.12,-1.15 -1.97,-2.44 -2.54,-3.89 -0.58,-1.44 -0.86,-3 -0.86,-4.67z"/>
   <polygon id="_1" fill="white" fill-rule="nonzero" points="125,45.45 125,22.91 130.38,22.91 130.38,40.61 139.16,40.61 139.16,45.45 "/>
   <polygon id="_2" fill="white" fill-rule="nonzero" points="143.84,45.45 143.84,34.75 135.79,22.91 142.28,22.91 146.98,30.05 152.17,22.91 157.87,22.91 149.18,34.54 149.18,45.45 "/>
   <polygon id="_3" fill="white" fill-rule="nonzero" points="159.21,45.45 159.21,22.18 159.73,22.18 173.76,35.33 173.76,22.91 178.72,22.91 178.72,46.3 178.26,46.3 164.18,33.16 164.18,45.45 "/>
   <polygon id="_4" fill="white" fill-rule="nonzero" points="188.46,45.45 188.46,27.62 181.3,27.62 181.3,22.91 200.96,22.91 200.96,27.62 193.83,27.62 193.83,45.45 "/>
   <path fill="#00F2FE" fill-rule="nonzero" d="M101.5 57.76c0,0.45 0.13,0.82 0.39,1.12 0.26,0.3 0.58,0.45 0.97,0.45 0.38,0 0.71,-0.15 0.97,-0.45 0.26,-0.3 0.39,-0.68 0.39,-1.12 0,-0.45 -0.13,-0.83 -0.39,-1.13 -0.26,-0.3 -0.58,-0.45 -0.97,-0.45 -0.38,0 -0.7,0.15 -0.97,0.45 -0.26,0.3 -0.39,0.68 -0.39,1.13zm-1.26 0c0,-0.38 0.07,-0.74 0.2,-1.07 0.13,-0.33 0.32,-0.63 0.58,-0.89 0.24,-0.25 0.52,-0.44 0.84,-0.58 0.32,-0.13 0.65,-0.2 1,-0.2 0.35,0 0.68,0.07 1,0.2 0.32,0.13 0.61,0.33 0.85,0.58 0.25,0.25 0.44,0.55 0.57,0.88 0.13,0.33 0.19,0.69 0.19,1.08 0,0.32 -0.05,0.62 -0.13,0.91 -0.09,0.28 -0.22,0.54 -0.4,0.78 -0.25,0.33 -0.56,0.59 -0.92,0.78 -0.37,0.19 -0.75,0.28 -1.16,0.28 -0.35,0 -0.68,-0.07 -1,-0.2 -0.32,-0.13 -0.6,-0.33 -0.85,-0.58 -0.26,-0.26 -0.45,-0.56 -0.58,-0.89 -0.13,-0.33 -0.2,-0.68 -0.2,-1.06z"/>
   <path id="_1_4" fill="#00F2FE" fill-rule="nonzero" d="M107.73 56.13l-0.17 0 0 1.37 0.22 0c0.31,0 0.55,-0.06 0.71,-0.18 0.16,-0.12 0.24,-0.29 0.24,-0.51 0,-0.24 -0.08,-0.41 -0.24,-0.51 -0.16,-0.11 -0.42,-0.16 -0.77,-0.16zm-1.39 4.19l0 -5.14 1.32 0c0.41,0 0.73,0.03 0.97,0.09 0.24,0.06 0.45,0.16 0.64,0.3 0.19,0.14 0.34,0.31 0.44,0.52 0.11,0.21 0.16,0.43 0.16,0.66 0,0.52 -0.19,0.93 -0.56,1.24 -0.37,0.3 -0.87,0.46 -1.5,0.46 -0.07,0 -0.11,0 -0.15,-0 -0.03,-0 -0.06,-0 -0.09,-0.01l0 1.88 -1.23 0z"/>
   <polygon id="_2_5" fill="#00F2FE" fill-rule="nonzero" points="110.62,60.33 110.62,55.19 113.78,55.19 113.78,56.25 111.81,56.25 111.81,57.18 113.5,57.18 113.5,58.23 111.81,58.23 111.81,59.24 113.81,59.24 113.81,60.33 "/>
   <polygon id="_3_6" fill="#00F2FE" fill-rule="nonzero" points="114.75,60.33 114.75,55.02 114.87,55.02 118.07,58.02 118.07,55.19 119.2,55.19 119.2,60.52 119.09,60.52 115.88,57.52 115.88,60.33 "/>
   <polygon id="_4_7" fill="#00F2FE" fill-rule="nonzero" points="124.57,60.33 124.57,55.19 125.79,55.19 125.79,59.22 127.8,59.22 127.8,60.33 "/>
   <polygon id="_5" fill="#00F2FE" fill-rule="nonzero" points="128.4,60.33 128.4,55.19 131.56,55.19 131.56,56.25 129.59,56.25 129.59,57.18 131.28,57.18 131.28,58.23 129.59,58.23 129.59,59.24 131.59,59.24 131.59,60.33 "/>
   <path id="_6" fill="#00F2FE" fill-rule="nonzero" d="M133.64 58.69l1.35 0 -0.67 -1.61 -0.68 1.61zm-1.92 1.63l2.62 -5.3 0.08 0 2.56 5.3 -1.28 0 -0.32 -0.75 -2.09 0 -0.33 0.75 -1.23 0z"/>
   <path id="_7" fill="#00F2FE" fill-rule="nonzero" d="M138.76 56.12l-0.2 0 0 1.42 0.26 0c0.31,0 0.55,-0.06 0.71,-0.19 0.16,-0.12 0.24,-0.3 0.24,-0.54 0,-0.25 -0.08,-0.42 -0.24,-0.53 -0.16,-0.11 -0.42,-0.16 -0.77,-0.16zm-1.39 4.2l0 -5.14 1.32 0c0.42,0 0.75,0.03 0.98,0.08 0.23,0.06 0.44,0.15 0.62,0.28 0.19,0.14 0.34,0.31 0.44,0.51 0.11,0.2 0.16,0.41 0.16,0.64 0,0.32 -0.08,0.61 -0.25,0.85 -0.16,0.24 -0.4,0.43 -0.71,0.57l1.57 2.21 -1.4 0 -1.37 -2.02 -0.17 0 0 2.02 -1.19 0z"/>
   <polygon id="_8" fill="#00F2FE" fill-rule="nonzero" points="141.99,60.33 141.99,55.02 142.11,55.02 145.31,58.02 145.31,55.19 146.44,55.19 146.44,60.52 146.33,60.52 143.12,57.52 143.12,60.33 "/>
   <polygon id="_9" fill="#00F2FE" fill-rule="nonzero" points="147.63,60.33 147.63,55.19 148.85,55.19 148.85,60.33 "/>
   <polygon id="_10" fill="#00F2FE" fill-rule="nonzero" points="150.05,60.33 150.05,55.02 150.17,55.02 153.37,58.02 153.37,55.19 154.5,55.19 154.5,60.52 154.4,60.52 151.18,57.52 151.18,60.33 "/>
   <path id="_11" fill="#00F2FE" fill-rule="nonzero" d="M160.04 57.47l0 2.5c-0.34,0.17 -0.68,0.3 -1.01,0.39 -0.33,0.09 -0.64,0.13 -0.95,0.13 -0.78,0 -1.43,-0.26 -1.95,-0.77 -0.52,-0.52 -0.77,-1.17 -0.77,-1.95 0,-0.79 0.26,-1.45 0.79,-1.97 0.52,-0.52 1.18,-0.78 1.99,-0.78 0.3,0 0.59,0.04 0.86,0.12 0.27,0.08 0.54,0.21 0.79,0.38l-0.13 1.29c-0.24,-0.24 -0.48,-0.42 -0.71,-0.53 -0.24,-0.11 -0.48,-0.17 -0.74,-0.17 -0.46,0 -0.84,0.15 -1.14,0.46 -0.3,0.31 -0.45,0.69 -0.45,1.16 0,0.49 0.15,0.89 0.44,1.19 0.29,0.31 0.67,0.46 1.13,0.46 0.11,0 0.21,-0.01 0.32,-0.03 0.11,-0.02 0.22,-0.05 0.34,-0.08l0 -0.75 -0.97 0 0 -1.04 2.18 0z"/>
   <polygon id="_12" fill="#00F2FE" fill-rule="nonzero" points="166.24,60.33 166.24,57.89 164.41,55.19 165.89,55.19 166.96,56.81 168.14,55.19 169.44,55.19 167.46,57.84 167.46,60.33 "/>
   <polygon id="_13" fill="#00F2FE" fill-rule="nonzero" points="169.76,60.33 169.76,55.19 170.99,55.19 170.99,60.33 "/>
   <polygon id="_14" fill="#00F2FE" fill-rule="nonzero" points="172.19,60.33 172.19,55.19 175.35,55.19 175.35,56.25 173.38,56.25 173.38,57.18 175.07,57.18 175.07,58.23 173.38,58.23 173.38,59.24 175.38,59.24 175.38,60.33 "/>
   <polygon id="_15" fill="#00F2FE" fill-rule="nonzero" points="176.32,60.33 176.32,55.19 177.54,55.19 177.54,59.22 179.55,59.22 179.55,60.33 "/>
   <path id="_16" fill="#00F2FE" fill-rule="nonzero" d="M181.36 59.22l0.27 0c0.54,0 0.96,-0.13 1.26,-0.39 0.3,-0.26 0.45,-0.62 0.45,-1.08 0,-0.46 -0.15,-0.82 -0.45,-1.08 -0.3,-0.26 -0.72,-0.39 -1.26,-0.39l-0.27 0 0 2.94zm-1.21 1.1l0 -5.14 1.36 0c0.96,0 1.71,0.23 2.25,0.69 0.54,0.46 0.81,1.09 0.81,1.88 0,0.48 -0.11,0.9 -0.32,1.27 -0.21,0.37 -0.53,0.67 -0.95,0.91 -0.24,0.14 -0.49,0.24 -0.77,0.3 -0.28,0.06 -0.62,0.09 -1.03,0.09l-1.36 0z"/>
   <polygon id="_17" fill="#00F2FE" fill-rule="nonzero" points="189.63,60.33 189.63,55.02 189.75,55.02 192.95,58.02 192.95,55.19 194.08,55.19 194.08,60.52 193.97,60.52 190.76,57.52 190.76,60.33 "/>
   <polygon id="_18" fill="#00F2FE" fill-rule="nonzero" points="195.25,60.33 195.25,55.19 198.42,55.19 198.42,56.25 196.45,56.25 196.45,57.18 198.14,57.18 198.14,58.23 196.45,58.23 196.45,59.24 198.45,59.24 198.45,60.33 "/>
   <polygon id="_19" fill="#00F2FE" fill-rule="nonzero" points="200.43,60.33 200.43,56.26 198.8,56.26 198.8,55.19 203.28,55.19 203.28,56.26 201.66,56.26 201.66,60.33 "/>
   <polygon id="_20" fill="#00F2FE" fill-rule="nonzero" points="205.36,60.49 203.21,55.19 204.45,55.19 205.45,57.96 206.53,55.02 206.62,55.02 207.7,57.96 208.69,55.19 209.84,55.19 207.7,60.49 207.63,60.49 206.53,57.55 205.45,60.49 "/>
   <path id="_21" fill="#00F2FE" fill-rule="nonzero" d="M211.3 57.76c0,0.45 0.13,0.82 0.39,1.12 0.26,0.3 0.58,0.45 0.97,0.45 0.38,0 0.71,-0.15 0.97,-0.45 0.26,-0.3 0.39,-0.68 0.39,-1.12 0,-0.45 -0.13,-0.83 -0.39,-1.13 -0.26,-0.3 -0.58,-0.45 -0.97,-0.45 -0.38,0 -0.7,0.15 -0.97,0.45 -0.26,0.3 -0.39,0.68 -0.39,1.13zm-1.26 0c0,-0.38 0.07,-0.74 0.2,-1.07 0.13,-0.33 0.32,-0.63 0.58,-0.89 0.24,-0.25 0.52,-0.44 0.84,-0.58 0.32,-0.13 0.65,-0.2 1,-0.2 0.35,0 0.68,0.07 1,0.2 0.32,0.13 0.61,0.33 0.85,0.58 0.25,0.25 0.44,0.55 0.57,0.88 0.13,0.33 0.19,0.69 0.19,1.08 0,0.32 -0.05,0.62 -0.13,0.91 -0.09,0.28 -0.22,0.54 -0.4,0.78 -0.25,0.33 -0.56,0.59 -0.92,0.78 -0.37,0.19 -0.75,0.28 -1.16,0.28 -0.35,0 -0.68,-0.07 -1,-0.2 -0.32,-0.13 -0.6,-0.33 -0.85,-0.58 -0.26,-0.26 -0.45,-0.56 -0.58,-0.89 -0.13,-0.33 -0.2,-0.68 -0.2,-1.06z"/>
   <path id="_22" fill="#00F2FE" fill-rule="nonzero" d="M217.53 56.12l-0.2 0 0 1.42 0.26 0c0.31,0 0.55,-0.06 0.71,-0.19 0.16,-0.12 0.24,-0.3 0.24,-0.54 0,-0.25 -0.08,-0.42 -0.24,-0.53 -0.16,-0.11 -0.42,-0.16 -0.77,-0.16zm-1.39 4.2l0 -5.14 1.32 0c0.42,0 0.75,0.03 0.98,0.08 0.23,0.06 0.44,0.15 0.62,0.28 0.19,0.14 0.34,0.31 0.44,0.51 0.11,0.2 0.16,0.41 0.16,0.64 0,0.32 -0.08,0.61 -0.25,0.85 -0.16,0.24 -0.4,0.43 -0.71,0.57l1.57 2.21 -1.4 0 -1.37 -2.02 -0.17 0 0 2.02 -1.19 0z"/>
   <polygon id="_23" fill="#00F2FE" fill-rule="nonzero" points="220.76,60.33 220.76,55.19 221.97,55.19 221.97,57.42 223.67,55.19 225.13,55.19 223.19,57.63 225.28,60.33 223.8,60.33 221.97,57.96 221.97,60.33 "/>
  </g>
 </g>
</svg>
